<svg width="334" height="134" viewBox="0 0 334 134" fill="none" xmlns="http://www.w3.org/2000/svg">
<g clip-path="url(#clip0_234_191)">
<g clip-path="url(#clip1_234_191)">
<path fill-rule="evenodd" clip-rule="evenodd" d="M0.776168 6.01631C20.3868 6.33847 40.9295 5.54381 59.9315 6.48881V27.6868H0.015328V7.28347C-0.0295299 7.0019 0.0249573 6.71168 0.167139 6.47489C0.30932 6.23809 0.52791 6.0735 0.776168 6.01631Z" fill="#F55F1D"/>
<path fill-rule="evenodd" clip-rule="evenodd" d="M64.1921 6.01627H82.9658V73.283H63.8307C64.0589 51.1185 63.3551 27.6868 64.1921 6.01627ZM87.2075 6.01627H105.981C106.818 27.6224 106.095 50.9467 106.343 73.2186H86.8651C87.0933 51.1185 86.3896 27.6868 87.2075 6.01627Z" fill="#20B15A"/>
<path fill-rule="evenodd" clip-rule="evenodd" d="M0.43391 32.0897H59.9316C59.7034 39.2846 60.4071 47.5318 59.5892 54.0824C39.9595 53.8032 19.2076 54.6193 0.0154476 53.6743C0.319784 46.6083 -0.403014 38.4899 0.43391 32.0897Z" fill="#F55F1D"/>
<path fill-rule="evenodd" clip-rule="evenodd" d="M1.13732 57.6691H19.5497V125.279H0.433546V58.8718C0.402105 58.6091 0.456098 58.3425 0.585514 58.1213C0.714929 57.9001 0.910985 57.7395 1.13732 57.6691ZM24.1527 57.6691C30.3155 57.9268 37.4674 57.1536 42.9265 58.0772V124.871C37.2202 125.795 29.84 125 23.449 125.279V58.8718C23.4175 58.6091 23.4715 58.3425 23.6009 58.1213C23.7303 57.9001 23.9264 57.7395 24.1527 57.6691Z" fill="#20B15A"/>
<path fill-rule="evenodd" clip-rule="evenodd" d="M47.1875 76.8912H105.981V98.8624H46.4838V78.0725C46.4531 77.8125 46.5077 77.5488 46.6374 77.3312C46.767 77.1136 46.9627 76.9571 47.1875 76.8912ZM46.8261 103.265H105.981V124.871H46.4838C46.712 117.805 46.0082 109.665 46.8261 103.265Z" fill="#F55F1D"/>
</g>
</g>
<path d="M148.529 12.8373V56.1486H133.561V12.8373H120.176V0.682836H161.914V12.8373H148.529ZM166.815 56.1486V0.682836H181.783V56.1486H166.815ZM220.121 56.1486L217.62 43.9746H203.819L201.335 56.1486H186.034L201.335 0.682836H220.871L235.506 56.1486H220.121ZM210.97 12.6422H210.636L205.736 33.1858H215.637L210.97 12.6422ZM265.192 25.4015H279.827V53.1246C276.116 54.5553 272.593 55.5958 269.259 56.2461C265.937 56.8964 263.137 57.2216 260.858 57.2216C253.324 57.2216 247.424 54.9195 243.157 50.3152C238.889 45.7109 236.756 38.6355 236.756 29.0888C236.756 19.36 239 12.0764 243.49 7.23806C247.979 2.41269 254.297 0 262.442 0C266.709 0 271.837 0.741367 277.827 2.22409C277.827 3.52473 277.716 5.45618 277.494 8.01844C277.271 10.5807 277.049 12.3821 276.827 13.4226L273.843 13.325C270.176 13.195 267.32 13.1299 265.276 13.1299C259.119 13.1299 255.763 13.5527 255.208 14.3981C254.319 15.6337 253.697 17.5456 253.341 20.1339C252.985 22.7352 252.808 25.2324 252.808 27.6256C252.808 31.9827 253.219 35.3579 254.041 37.751C254.874 40.1572 256.152 41.848 257.875 42.8235C259.586 43.786 261.914 44.2672 264.859 44.2672H265.192V25.4015ZM310.014 57.4167C301.746 57.4167 295.551 55.1276 291.429 50.5493C287.295 45.9711 285.228 38.6225 285.228 28.5035C285.228 18.5796 287.5 11.3481 292.045 6.80884C296.59 2.26961 302.608 0 310.097 0C325.832 0 333.7 9.17601 333.7 27.528C333.7 36.8146 331.777 44.1177 327.933 49.4373C324.077 54.7569 318.104 57.4167 310.014 57.4167ZM309.681 45.9256C311.225 45.9256 312.525 45.6199 313.581 45.0086C314.637 44.3843 315.47 43.2983 316.081 41.7505C317.248 39.0842 317.831 34.7336 317.831 28.6986C317.831 22.7937 317.248 18.5146 316.081 15.8613C314.914 13.1299 312.781 11.6992 309.681 11.5692C308.514 11.5692 307.308 11.7188 306.063 12.0179C304.808 12.304 304.019 12.7072 303.697 13.2275C303.03 14.1379 302.513 16.0694 302.146 19.0218C301.791 21.9743 301.613 25.1999 301.613 28.6986C301.613 34.1483 302.057 38.1412 302.946 40.6775C303.547 42.5504 304.402 43.8966 305.513 44.716C306.625 45.5224 308.014 45.9256 309.681 45.9256Z" fill="#20B15A"/>
<path d="M130.636 82.37L130.569 88.049V104.831H120.176V63.2696H130.703L140.105 80.0315C141.515 82.5075 142.595 84.597 143.345 86.3001H143.53V79.3045V63.2696H153.872V104.831H143.278L133.624 87.3219L130.821 82.37H130.636ZM159.731 104.831V63.2696H185.586V72.0141H170.946V79.5992H183.286V87.4791H170.946V95.9289H185.536V104.831H159.731ZM190.388 104.831V63.2696H201.603V104.831H190.388ZM226.518 72.3875V104.831H215.303V72.3875H205.28V63.2696H236.558V72.3875H226.518ZM250.392 96.8721H267.517V104.831H238.74V96.5184L255.613 71.287H239.227V63.2696H267.03V71.6407L250.392 96.8721ZM297.485 88.5599L305.41 104.831H293.137L286.22 89.3066C286.097 89.0577 285.772 88.3765 285.246 87.263C284.731 86.1363 284.16 85.0621 283.533 84.0403V104.831H272.318V63.2696H283.533V82.1538C284.239 81.2237 284.854 80.215 285.38 79.1276C285.895 78.0272 286.192 77.3787 286.27 77.1822L292.935 63.2696H304.788L297.67 77.1822C297.547 77.3787 297.278 77.8896 296.864 78.715C296.45 79.5534 296.002 80.3198 295.521 81.0141C295.051 81.7215 294.547 82.37 294.01 82.9595C294.749 83.7848 295.359 84.597 295.84 85.3962C296.321 86.1953 296.87 87.2499 297.485 88.5599ZM307.827 104.831V63.2696H333.699V72.0141H319.042V79.5992H331.382V87.4791H319.042V95.9289H333.632V104.831H307.827Z" fill="#F55F1D"/>
<path d="M119.859 116.797V130.942H127.01V129.42H121.393V124.269H125.977V122.748H121.393V118.3H126.827V116.797H119.859ZM129.577 116.797V130.942H131.027V123.548C131.027 122.806 131.011 122.045 130.961 121.304C130.927 120.582 130.877 119.841 130.827 119.119H130.911L132.211 122.026L136.595 130.942H138.178V116.797H136.728V124.113C136.728 124.855 136.745 125.616 136.795 126.376C136.828 127.157 136.878 127.898 136.911 128.62H136.845L135.528 125.674L131.161 116.797H129.577ZM140.795 123.86C140.795 125.011 140.928 126.045 141.195 126.962C141.478 127.879 141.845 128.64 142.329 129.264C142.812 129.888 143.379 130.376 144.045 130.708C144.695 131.039 145.429 131.195 146.229 131.195C147.046 131.195 147.779 131.039 148.413 130.727C149.063 130.434 149.579 130.044 149.979 129.557V123.606H146.012V125.089H148.579V128.776C148.329 129.049 148.012 129.244 147.629 129.4C147.229 129.557 146.829 129.635 146.396 129.635C145.746 129.635 145.179 129.498 144.679 129.225C144.179 128.952 143.762 128.562 143.429 128.054C143.079 127.547 142.829 126.942 142.645 126.22C142.479 125.518 142.379 124.718 142.379 123.821C142.379 122.943 142.479 122.162 142.662 121.46C142.862 120.758 143.129 120.153 143.462 119.646C143.812 119.158 144.229 118.768 144.729 118.514C145.212 118.241 145.762 118.104 146.379 118.104C146.996 118.104 147.496 118.241 147.896 118.495C148.296 118.748 148.646 119.06 148.963 119.431L149.829 118.28C149.463 117.851 149.013 117.461 148.446 117.09C147.896 116.719 147.196 116.544 146.362 116.544C145.546 116.544 144.812 116.7 144.129 117.051C143.462 117.383 142.879 117.87 142.379 118.495C141.878 119.138 141.495 119.899 141.212 120.797C140.928 121.714 140.795 122.728 140.795 123.86ZM152.863 116.797V130.942H160.014V129.42H154.397V124.269H158.98V122.748H154.397V118.3H159.83V116.797H152.863ZM162.581 116.797V130.942H164.031V123.548C164.031 122.806 164.014 122.045 163.964 121.304C163.931 120.582 163.881 119.841 163.831 119.119H163.898L165.214 122.026L169.598 130.942H171.182V116.797H169.732V124.113C169.732 124.855 169.748 125.616 169.782 126.376C169.832 127.157 169.865 127.898 169.915 128.62H169.832L168.531 125.674L164.164 116.797H162.581ZM174.499 116.797V130.942H176.032V124.269H181.65V130.942H183.2V116.797H181.65V122.728H176.032V116.797H174.499ZM191.651 125.186H188.017L188.584 123.021C188.817 122.24 189.017 121.441 189.217 120.66C189.417 119.88 189.6 119.08 189.784 118.261H189.867C190.05 119.08 190.25 119.88 190.451 120.66C190.651 121.441 190.851 122.24 191.084 123.021L191.651 125.186ZM192.034 126.63L193.184 130.942H194.818L190.734 116.797H189L184.9 130.942H186.467L187.634 126.63H192.034ZM198.068 123.509V118.241H200.085C201.035 118.241 201.752 118.436 202.268 118.807C202.769 119.177 203.019 119.821 203.019 120.758C203.019 121.675 202.769 122.377 202.268 122.826C201.752 123.274 201.035 123.509 200.085 123.509H198.068ZM203.169 130.942H204.902L201.835 124.777C202.669 124.523 203.319 124.074 203.802 123.411C204.302 122.748 204.552 121.87 204.552 120.758C204.552 120.036 204.435 119.412 204.235 118.904C204.019 118.397 203.735 117.987 203.352 117.675C202.985 117.363 202.535 117.129 202.018 116.992C201.485 116.856 200.918 116.797 200.302 116.797H196.535V130.942H198.068V124.972H200.252L203.169 130.942ZM207.236 116.797V130.942H208.769V116.797H207.236ZM217.22 125.186H213.586L214.17 123.021C214.386 122.24 214.587 121.441 214.787 120.66C214.987 119.88 215.17 119.08 215.37 118.261H215.437C215.637 119.08 215.837 119.88 216.02 120.66C216.22 121.441 216.437 122.24 216.653 123.021L217.22 125.186ZM217.604 126.63L218.754 130.942H220.387L216.303 116.797H214.57L210.486 130.942H212.053L213.203 126.63H217.604ZM225.821 116.797V130.942H228.921C229.838 130.942 230.638 130.786 231.338 130.454C232.038 130.142 232.622 129.674 233.105 129.049C233.589 128.445 233.939 127.703 234.189 126.806C234.439 125.928 234.555 124.933 234.555 123.801C234.555 121.538 234.072 119.821 233.105 118.612C232.138 117.402 230.722 116.797 228.855 116.797H225.821ZM228.738 129.479H227.355V118.261H228.738C230.155 118.261 231.205 118.729 231.922 119.685C232.622 120.641 232.972 122.006 232.972 123.801C232.972 125.596 232.622 127.001 231.922 127.996C231.205 128.971 230.155 129.479 228.738 129.479ZM237.156 116.797V130.942H244.306V129.42H238.689V124.269H243.273V122.748H238.689V118.3H244.123V116.797H237.156ZM250.624 127.859L249.707 129.108C250.24 129.752 250.857 130.259 251.591 130.649C252.307 131.02 253.091 131.195 253.941 131.195C254.574 131.195 255.158 131.098 255.658 130.883C256.158 130.688 256.591 130.395 256.941 130.025C257.308 129.654 257.575 129.225 257.758 128.737C257.958 128.249 258.058 127.723 258.058 127.176C258.058 126.65 257.991 126.201 257.858 125.791C257.725 125.401 257.558 125.05 257.325 124.757C257.108 124.465 256.841 124.211 256.541 123.996C256.241 123.762 255.908 123.567 255.558 123.392L253.858 122.533C253.607 122.416 253.357 122.299 253.124 122.162C252.891 122.026 252.691 121.85 252.491 121.675C252.291 121.499 252.141 121.284 252.024 121.05C251.907 120.816 251.841 120.524 251.841 120.172C251.841 119.529 252.041 119.021 252.457 118.67C252.874 118.3 253.407 118.104 254.091 118.104C254.658 118.104 255.158 118.221 255.608 118.475C256.058 118.709 256.474 119.021 256.841 119.451L257.658 118.28C257.241 117.773 256.708 117.344 256.091 117.012C255.491 116.7 254.808 116.544 254.091 116.544C253.541 116.544 253.024 116.622 252.574 116.817C252.107 117.012 251.707 117.266 251.374 117.597C251.041 117.948 250.774 118.339 250.574 118.807C250.39 119.256 250.29 119.763 250.29 120.29C250.29 120.797 250.374 121.265 250.524 121.655C250.657 122.045 250.857 122.397 251.091 122.689C251.324 122.962 251.591 123.216 251.874 123.411C252.174 123.626 252.457 123.782 252.741 123.938L254.474 124.816C254.758 124.972 255.024 125.128 255.274 125.264C255.508 125.421 255.724 125.577 255.908 125.752C256.091 125.928 256.224 126.142 256.324 126.396C256.441 126.65 256.491 126.962 256.491 127.313C256.491 128.015 256.258 128.562 255.824 128.991C255.374 129.42 254.758 129.635 253.958 129.635C253.341 129.635 252.724 129.459 252.141 129.147C251.557 128.815 251.057 128.386 250.624 127.859ZM264.892 131.195C265.642 131.195 266.342 131.02 266.976 130.688C267.609 130.337 268.159 129.849 268.626 129.205C269.076 128.562 269.443 127.781 269.693 126.884C269.943 125.967 270.059 124.933 270.059 123.801C270.059 122.689 269.943 121.675 269.693 120.777C269.443 119.88 269.076 119.119 268.626 118.495C268.159 117.87 267.609 117.383 266.976 117.051C266.342 116.7 265.642 116.544 264.892 116.544C264.125 116.544 263.425 116.7 262.792 117.031C262.158 117.363 261.625 117.851 261.158 118.475C260.708 119.099 260.358 119.86 260.108 120.758C259.858 121.655 259.725 122.67 259.725 123.801C259.725 124.933 259.858 125.967 260.108 126.884C260.358 127.781 260.708 128.562 261.158 129.205C261.625 129.849 262.158 130.337 262.792 130.688C263.425 131.02 264.125 131.195 264.892 131.195ZM264.892 129.635C264.342 129.635 263.859 129.498 263.425 129.225C262.992 128.952 262.608 128.542 262.292 128.035C261.992 127.528 261.742 126.923 261.575 126.201C261.392 125.499 261.308 124.699 261.308 123.801C261.308 122.923 261.392 122.143 261.575 121.441C261.742 120.719 261.992 120.133 262.292 119.646C262.608 119.158 262.992 118.768 263.425 118.514C263.859 118.241 264.342 118.104 264.892 118.104C265.425 118.104 265.909 118.241 266.359 118.514C266.792 118.768 267.159 119.158 267.476 119.646C267.792 120.133 268.026 120.719 268.209 121.441C268.376 122.143 268.459 122.923 268.459 123.801C268.459 124.699 268.376 125.499 268.209 126.201C268.026 126.923 267.792 127.528 267.476 128.035C267.159 128.542 266.792 128.952 266.359 129.225C265.909 129.498 265.425 129.635 264.892 129.635ZM272.66 116.797V130.942H274.193V124.601H278.794V123.099H274.193V118.3H279.627V116.797H272.66ZM284.278 118.3V130.942H285.811V118.3H289.461V116.797H280.627V118.3H284.278ZM290.412 116.797L292.962 130.942H294.795L296.579 122.416C296.679 121.87 296.779 121.343 296.879 120.816C296.979 120.29 297.079 119.763 297.179 119.216H297.262C297.362 119.763 297.446 120.29 297.546 120.816C297.629 121.343 297.746 121.87 297.846 122.416L299.679 130.942H301.513L304.013 116.797H302.546L301.279 124.504C301.146 125.264 301.029 126.006 300.929 126.767C300.813 127.528 300.696 128.288 300.596 129.069H300.513C300.379 128.288 300.229 127.528 300.079 126.767C299.929 126.006 299.779 125.245 299.629 124.504L297.962 116.797H296.562L294.879 124.504C294.745 125.264 294.612 126.006 294.462 126.767C294.312 127.528 294.162 128.288 294.029 129.069H293.962C293.845 128.288 293.729 127.528 293.612 126.786C293.495 126.025 293.379 125.264 293.262 124.504L291.995 116.797H290.412ZM311.264 125.186H307.63L308.197 123.021C308.43 122.24 308.63 121.441 308.83 120.66C309.03 119.88 309.214 119.08 309.397 118.261H309.48C309.664 119.08 309.864 119.88 310.064 120.66C310.264 121.441 310.464 122.24 310.697 123.021L311.264 125.186ZM311.647 126.63L312.797 130.942H314.431L310.347 116.797H308.614L304.513 130.942H306.08L307.247 126.63H311.647ZM317.665 123.509V118.241H319.698C320.648 118.241 321.365 118.436 321.882 118.807C322.382 119.177 322.632 119.821 322.632 120.758C322.632 121.675 322.382 122.377 321.882 122.826C321.365 123.274 320.648 123.509 319.698 123.509H317.665ZM322.782 130.942H324.515L321.448 124.777C322.265 124.523 322.932 124.074 323.415 123.411C323.915 122.748 324.165 121.87 324.165 120.758C324.165 120.036 324.049 119.412 323.849 118.904C323.632 118.397 323.349 117.987 322.965 117.675C322.598 117.363 322.148 117.129 321.632 116.992C321.098 116.856 320.532 116.797 319.915 116.797H316.148V130.942H317.665V124.972H319.865L322.782 130.942ZM326.849 116.797V130.942H334V129.42H328.382V124.269H332.966V122.748H328.382V118.3H333.816V116.797H326.849Z" fill="#20B15A"/>
<defs>
<clipPath id="clip0_234_191">
<rect width="114.126" height="127.993" fill="white" transform="translate(0 6.0069)"/>
</clipPath>
<clipPath id="clip1_234_191">
<rect width="106.399" height="119.327" fill="white" transform="translate(0 6.0069)"/>
</clipPath>
</defs>
</svg>
